<?xml version="1.0" encoding="UTF-8" standalone="no"?>
<!DOCTYPE svg PUBLIC "-//W3C//DTD SVG 1.1//EN"
 "http://www.w3.org/Graphics/SVG/1.1/DTD/svg11.dtd">
<!-- Generated by graphviz version 2.26.3 (20100126.1600)
 -->
<!-- Title: controllers_diagram Pages: 1 -->
<svg width="500pt" height="403pt"
 viewBox="0.00 0.00 500.00 403.00" xmlns="http://www.w3.org/2000/svg" xmlns:xlink="http://www.w3.org/1999/xlink">
<g id="graph1" class="graph" transform="scale(1 1) rotate(0) translate(4 399)">
<title>controllers_diagram</title>
<polygon fill="none" stroke="none" points="-4,5 -4,-399 497,-399 497,5 -4,5"/>
<!-- _diagram_info -->
<g id="node1" class="node"><title>_diagram_info</title>
<text text-anchor="start" x="249" y="-378.3" font-family="Times Roman,serif" font-size="13.00">Controllers diagram</text>
<text text-anchor="start" x="249" y="-361.3" font-family="Times Roman,serif" font-size="13.00">Date: Jan 16 2017 &#45; 19:54</text>
<text text-anchor="start" x="249" y="-344.3" font-family="Times Roman,serif" font-size="13.00">Migration version: 20170116225124</text>
<text text-anchor="start" x="249" y="-327.3" font-family="Times Roman,serif" font-size="13.00">Generated by RailRoady 1.5.2</text>
<text text-anchor="start" x="249" y="-310.3" font-family="Times Roman,serif" font-size="13.00">http://railroady.prestonlee.com</text>
</g>
<!-- ClaimsController -->
<g id="node2" class="node"><title>ClaimsController</title>
<polyline fill="none" stroke="black" points="213,-21.5 320,-21.5 "/>
<path fill="none" stroke="black" d="M320,-21.5C326,-21.5 332,-27.5 332,-33.5"/>
<polyline fill="none" stroke="black" points="332,-33.5 332,-255.5 "/>
<path fill="none" stroke="black" d="M332,-255.5C332,-261.5 326,-267.5 320,-267.5"/>
<polyline fill="none" stroke="black" points="320,-267.5 213,-267.5 "/>
<path fill="none" stroke="black" d="M213,-267.5C207,-267.5 201,-261.5 201,-255.5"/>
<polyline fill="none" stroke="black" points="201,-255.5 201,-33.5 "/>
<path fill="none" stroke="black" d="M201,-33.5C201,-27.5 207,-21.5 213,-21.5"/>
<text text-anchor="middle" x="266.5" y="-250.9" font-family="Times Roman,serif" font-size="14.00">ClaimsController</text>
<polyline fill="none" stroke="black" points="201,-241.5 332,-241.5 "/>
<text text-anchor="start" x="209" y="-224.9" font-family="Times Roman,serif" font-size="14.00">create</text>
<text text-anchor="start" x="209" y="-206.9" font-family="Times Roman,serif" font-size="14.00">destroy</text>
<text text-anchor="start" x="209" y="-188.9" font-family="Times Roman,serif" font-size="14.00">edit</text>
<text text-anchor="start" x="209" y="-170.9" font-family="Times Roman,serif" font-size="14.00">index</text>
<text text-anchor="start" x="209" y="-152.9" font-family="Times Roman,serif" font-size="14.00">new</text>
<text text-anchor="start" x="209" y="-134.9" font-family="Times Roman,serif" font-size="14.00">show</text>
<text text-anchor="start" x="209" y="-116.9" font-family="Times Roman,serif" font-size="14.00">update</text>
<polyline fill="none" stroke="black" points="201,-107.5 332,-107.5 "/>
<polyline fill="none" stroke="black" points="201,-83.5 332,-83.5 "/>
<text text-anchor="start" x="209" y="-66.9" font-family="Times Roman,serif" font-size="14.00">_layout</text>
<text text-anchor="start" x="209" y="-48.9" font-family="Times Roman,serif" font-size="14.00">claim_params</text>
<text text-anchor="start" x="209" y="-30.9" font-family="Times Roman,serif" font-size="14.00">set_claim</text>
</g>
<!-- ApplicationController -->
<g id="node3" class="node"><title>ApplicationController</title>
<polyline fill="none" stroke="black" points="13,-281.5 150,-281.5 "/>
<path fill="none" stroke="black" d="M150,-281.5C156,-281.5 162,-287.5 162,-293.5"/>
<polyline fill="none" stroke="black" points="162,-293.5 162,-369.5 "/>
<path fill="none" stroke="black" d="M162,-369.5C162,-375.5 156,-381.5 150,-381.5"/>
<polyline fill="none" stroke="black" points="150,-381.5 13,-381.5 "/>
<path fill="none" stroke="black" d="M13,-381.5C7,-381.5 1,-375.5 1,-369.5"/>
<polyline fill="none" stroke="black" points="1,-369.5 1,-293.5 "/>
<path fill="none" stroke="black" d="M1,-293.5C1,-287.5 7,-281.5 13,-281.5"/>
<text text-anchor="middle" x="81.5" y="-364.9" font-family="Times Roman,serif" font-size="14.00">ApplicationController</text>
<polyline fill="none" stroke="black" points="1,-355.5 162,-355.5 "/>
<polyline fill="none" stroke="black" points="1,-331.5 162,-331.5 "/>
<polyline fill="none" stroke="black" points="1,-307.5 162,-307.5 "/>
<text text-anchor="start" x="9" y="-290.9" font-family="Times Roman,serif" font-size="14.00">_layout</text>
</g>
<!-- CompaniesController -->
<g id="node4" class="node"><title>CompaniesController</title>
<polyline fill="none" stroke="black" points="13,-1.5 150,-1.5 "/>
<path fill="none" stroke="black" d="M150,-1.5C156,-1.5 162,-7.5 162,-13.5"/>
<polyline fill="none" stroke="black" points="162,-13.5 162,-235.5 "/>
<path fill="none" stroke="black" d="M162,-235.5C162,-241.5 156,-247.5 150,-247.5"/>
<polyline fill="none" stroke="black" points="150,-247.5 13,-247.5 "/>
<path fill="none" stroke="black" d="M13,-247.5C7,-247.5 1,-241.5 1,-235.5"/>
<polyline fill="none" stroke="black" points="1,-235.5 1,-13.5 "/>
<path fill="none" stroke="black" d="M1,-13.5C1,-7.5 7,-1.5 13,-1.5"/>
<text text-anchor="middle" x="81.5" y="-230.9" font-family="Times Roman,serif" font-size="14.00">CompaniesController</text>
<polyline fill="none" stroke="black" points="1,-221.5 162,-221.5 "/>
<text text-anchor="start" x="9" y="-204.9" font-family="Times Roman,serif" font-size="14.00">create</text>
<text text-anchor="start" x="9" y="-186.9" font-family="Times Roman,serif" font-size="14.00">destroy</text>
<text text-anchor="start" x="9" y="-168.9" font-family="Times Roman,serif" font-size="14.00">edit</text>
<text text-anchor="start" x="9" y="-150.9" font-family="Times Roman,serif" font-size="14.00">index</text>
<text text-anchor="start" x="9" y="-132.9" font-family="Times Roman,serif" font-size="14.00">new</text>
<text text-anchor="start" x="9" y="-114.9" font-family="Times Roman,serif" font-size="14.00">show</text>
<text text-anchor="start" x="9" y="-96.9" font-family="Times Roman,serif" font-size="14.00">update</text>
<polyline fill="none" stroke="black" points="1,-87.5 162,-87.5 "/>
<polyline fill="none" stroke="black" points="1,-63.5 162,-63.5 "/>
<text text-anchor="start" x="9" y="-46.9" font-family="Times Roman,serif" font-size="14.00">_layout</text>
<text text-anchor="start" x="9" y="-28.9" font-family="Times Roman,serif" font-size="14.00">company_params</text>
<text text-anchor="start" x="9" y="-10.9" font-family="Times Roman,serif" font-size="14.00">set_company</text>
</g>
</g>
</svg>
