<?xml version="1.0" encoding="UTF-8" standalone="no"?>
<!DOCTYPE svg PUBLIC "-//W3C//DTD SVG 1.1//EN"
 "http://www.w3.org/Graphics/SVG/1.1/DTD/svg11.dtd">
<!-- Generated by graphviz version 2.26.3 (20100126.1600)
 -->
<!-- Title: models_diagram Pages: 1 -->
<svg width="798pt" height="656pt"
 viewBox="0.00 0.00 798.00 656.00" xmlns="http://www.w3.org/2000/svg" xmlns:xlink="http://www.w3.org/1999/xlink">
<g id="graph1" class="graph" transform="scale(1 1) rotate(0) translate(4 652)">
<title>models_diagram</title>
<polygon fill="none" stroke="none" points="-4,5 -4,-652 795,-652 795,5 -4,5"/>
<!-- _diagram_info -->
<g id="node1" class="node"><title>_diagram_info</title>
<text text-anchor="start" x="8" y="-624.8" font-family="Times Roman,serif" font-size="13.00">Models diagram</text>
<text text-anchor="start" x="8" y="-607.8" font-family="Times Roman,serif" font-size="13.00">Date: Jan 16 2017 &#45; 19:54</text>
<text text-anchor="start" x="8" y="-590.8" font-family="Times Roman,serif" font-size="13.00">Migration version: 20170116225124</text>
<text text-anchor="start" x="8" y="-573.8" font-family="Times Roman,serif" font-size="13.00">Generated by RailRoady 1.5.2</text>
<text text-anchor="start" x="8" y="-556.8" font-family="Times Roman,serif" font-size="13.00">http://railroady.prestonlee.com</text>
</g>
<!-- Company -->
<g id="node2" class="node"><title>Company</title>
<polyline fill="none" stroke="black" points="279.5,-541 564.5,-541 "/>
<path fill="none" stroke="black" d="M564.5,-541C570.5,-541 576.5,-547 576.5,-553"/>
<polyline fill="none" stroke="black" points="576.5,-553 576.5,-635 "/>
<path fill="none" stroke="black" d="M576.5,-635C576.5,-641 570.5,-647 564.5,-647"/>
<polyline fill="none" stroke="black" points="564.5,-647 279.5,-647 "/>
<path fill="none" stroke="black" d="M279.5,-647C273.5,-647 267.5,-641 267.5,-635"/>
<polyline fill="none" stroke="black" points="267.5,-635 267.5,-553 "/>
<path fill="none" stroke="black" d="M267.5,-553C267.5,-547 273.5,-541 279.5,-541"/>
<text text-anchor="middle" x="422" y="-630.4" font-family="Times Roman,serif" font-size="14.00">Company</text>
<polyline fill="none" stroke="black" points="267.5,-621 576.5,-621 "/>
<text text-anchor="start" x="275.5" y="-604.4" font-family="Times Roman,serif" font-size="14.00">id :integer</text>
<text text-anchor="start" x="275.5" y="-586.4" font-family="Times Roman,serif" font-size="14.00">name :character varying</text>
<text text-anchor="start" x="275.5" y="-568.4" font-family="Times Roman,serif" font-size="14.00">created_at :timestamp without time zone</text>
<text text-anchor="start" x="275.5" y="-550.4" font-family="Times Roman,serif" font-size="14.00">updated_at :timestamp without time zone</text>
</g>
<!-- User -->
<g id="node4" class="node"><title>User</title>
<polyline fill="none" stroke="black" points="121,-181 495,-181 "/>
<path fill="none" stroke="black" d="M495,-181C501,-181 507,-187 507,-193"/>
<polyline fill="none" stroke="black" points="507,-193 507,-491 "/>
<path fill="none" stroke="black" d="M507,-491C507,-497 501,-503 495,-503"/>
<polyline fill="none" stroke="black" points="495,-503 121,-503 "/>
<path fill="none" stroke="black" d="M121,-503C115,-503 109,-497 109,-491"/>
<polyline fill="none" stroke="black" points="109,-491 109,-193 "/>
<path fill="none" stroke="black" d="M109,-193C109,-187 115,-181 121,-181"/>
<text text-anchor="middle" x="308" y="-486.4" font-family="Times Roman,serif" font-size="14.00">User</text>
<polyline fill="none" stroke="black" points="109,-477 507,-477 "/>
<text text-anchor="start" x="117" y="-460.4" font-family="Times Roman,serif" font-size="14.00">id :integer</text>
<text text-anchor="start" x="117" y="-442.4" font-family="Times Roman,serif" font-size="14.00">email :character varying</text>
<text text-anchor="start" x="117" y="-424.4" font-family="Times Roman,serif" font-size="14.00">encrypted_password :character varying</text>
<text text-anchor="start" x="117" y="-406.4" font-family="Times Roman,serif" font-size="14.00">reset_password_token :character varying</text>
<text text-anchor="start" x="117" y="-388.4" font-family="Times Roman,serif" font-size="14.00">reset_password_sent_at :timestamp without time zone</text>
<text text-anchor="start" x="117" y="-370.4" font-family="Times Roman,serif" font-size="14.00">remember_created_at :timestamp without time zone</text>
<text text-anchor="start" x="117" y="-352.4" font-family="Times Roman,serif" font-size="14.00">sign_in_count :integer</text>
<text text-anchor="start" x="117" y="-334.4" font-family="Times Roman,serif" font-size="14.00">current_sign_in_at :timestamp without time zone</text>
<text text-anchor="start" x="117" y="-316.4" font-family="Times Roman,serif" font-size="14.00">last_sign_in_at :timestamp without time zone</text>
<text text-anchor="start" x="117" y="-298.4" font-family="Times Roman,serif" font-size="14.00">current_sign_in_ip :inet</text>
<text text-anchor="start" x="117" y="-280.4" font-family="Times Roman,serif" font-size="14.00">last_sign_in_ip :inet</text>
<text text-anchor="start" x="117" y="-262.4" font-family="Times Roman,serif" font-size="14.00">created_at :timestamp without time zone</text>
<text text-anchor="start" x="117" y="-244.4" font-family="Times Roman,serif" font-size="14.00">updated_at :timestamp without time zone</text>
<text text-anchor="start" x="117" y="-226.4" font-family="Times Roman,serif" font-size="14.00">name :character varying</text>
<text text-anchor="start" x="117" y="-208.4" font-family="Times Roman,serif" font-size="14.00">age :integer</text>
<text text-anchor="start" x="117" y="-190.4" font-family="Times Roman,serif" font-size="14.00">company_id :integer</text>
</g>
<!-- Company&#45;&gt;User -->
<g id="edge2" class="edge"><title>Company&#45;&gt;User</title>
<path fill="none" stroke="#3080b6" d="M394.583,-533.395C391.56,-526.711 388.382,-519.687 385.103,-512.438"/>
<ellipse fill="none" stroke="#3080b6" cx="396.314" cy="-537.221" rx="4.00002" ry="4.00002"/>
<polygon fill="#3080b6" stroke="#3080b6" points="385.02,-512.256 384.999,-501.29 382.96,-507.7 380.899,-503.145 380.899,-503.145 380.899,-503.145 382.96,-507.7 376.799,-504.999 385.02,-512.256 385.02,-512.256"/>
</g>
<!-- Claim -->
<g id="node5" class="node"><title>Claim</title>
<polyline fill="none" stroke="black" points="278.5,-1 563.5,-1 "/>
<path fill="none" stroke="black" d="M563.5,-1C569.5,-1 575.5,-7 575.5,-13"/>
<polyline fill="none" stroke="black" points="575.5,-13 575.5,-131 "/>
<path fill="none" stroke="black" d="M575.5,-131C575.5,-137 569.5,-143 563.5,-143"/>
<polyline fill="none" stroke="black" points="563.5,-143 278.5,-143 "/>
<path fill="none" stroke="black" d="M278.5,-143C272.5,-143 266.5,-137 266.5,-131"/>
<polyline fill="none" stroke="black" points="266.5,-131 266.5,-13 "/>
<path fill="none" stroke="black" d="M266.5,-13C266.5,-7 272.5,-1 278.5,-1"/>
<text text-anchor="middle" x="421" y="-126.4" font-family="Times Roman,serif" font-size="14.00">Claim</text>
<polyline fill="none" stroke="black" points="266.5,-117 575.5,-117 "/>
<text text-anchor="start" x="274.5" y="-100.4" font-family="Times Roman,serif" font-size="14.00">id :integer</text>
<text text-anchor="start" x="274.5" y="-82.4" font-family="Times Roman,serif" font-size="14.00">title :character varying</text>
<text text-anchor="start" x="274.5" y="-64.4" font-family="Times Roman,serif" font-size="14.00">content :text</text>
<text text-anchor="start" x="274.5" y="-46.4" font-family="Times Roman,serif" font-size="14.00">user_id :integer</text>
<text text-anchor="start" x="274.5" y="-28.4" font-family="Times Roman,serif" font-size="14.00">created_at :timestamp without time zone</text>
<text text-anchor="start" x="274.5" y="-10.4" font-family="Times Roman,serif" font-size="14.00">updated_at :timestamp without time zone</text>
</g>
<!-- Company&#45;&gt;Claim -->
<g id="edge4" class="edge"><title>Company&#45;&gt;Claim</title>
<path fill="none" stroke="#30ee1b" d="M498.075,-533.079C505.303,-524.109 511.574,-514.366 516,-504 572.549,-371.568 566.825,-314.732 516,-180 512.293,-170.173 507.24,-160.66 501.383,-151.623"/>
<polygon fill="#30ee1b" stroke="#30ee1b" points="498.003,-533.163 488.08,-537.832 494.751,-536.961 491.499,-540.759 491.499,-540.759 491.499,-540.759 494.751,-536.961 494.917,-543.686 498.003,-533.163 498.003,-533.163"/>
<polygon fill="#30ee1b" stroke="#30ee1b" points="501.199,-151.354 499.249,-140.563 498.369,-147.232 495.539,-143.11 495.539,-143.11 495.539,-143.11 498.369,-147.232 491.829,-145.657 501.199,-151.354 501.199,-151.354"/>
</g>
<!-- ApplicationRecord -->
<g id="node3" class="node"><title>ApplicationRecord</title>
<ellipse fill="none" stroke="black" cx="692" cy="-594" rx="97.7889" ry="18.3848"/>
<text text-anchor="middle" x="692" y="-590.4" font-family="Times Roman,serif" font-size="14.00">ApplicationRecord</text>
</g>
<!-- User&#45;&gt;Claim -->
<g id="edge6" class="edge"><title>User&#45;&gt;Claim</title>
<path fill="none" stroke="#fec732" d="M378.713,-173.041C381.634,-166.06 384.501,-159.21 387.28,-152.57"/>
<ellipse fill="none" stroke="#fec732" cx="377.071" cy="-176.962" rx="4.00001" ry="4.00001"/>
<polygon fill="#fec732" stroke="#fec732" points="387.423,-152.227 395.435,-144.74 389.354,-147.615 391.284,-143.003 391.284,-143.003 391.284,-143.003 389.354,-147.615 387.133,-141.265 387.423,-152.227 387.423,-152.227"/>
</g>
</g>
</svg>
