<?xml version="1.0" encoding="UTF-8" standalone="no"?>
<!DOCTYPE svg PUBLIC "-//W3C//DTD SVG 1.1//EN"
 "http://www.w3.org/Graphics/SVG/1.1/DTD/svg11.dtd">
<!-- Generated by graphviz version 2.26.3 (20100126.1600)
 -->
<!-- Title: models_diagram Pages: 1 -->
<svg width="604pt" height="250pt"
 viewBox="0.00 0.00 604.00 250.00" xmlns="http://www.w3.org/2000/svg" xmlns:xlink="http://www.w3.org/1999/xlink">
<g id="graph1" class="graph" transform="scale(1 1) rotate(0) translate(4 246)">
<title>models_diagram</title>
<polygon fill="none" stroke="none" points="-4,5 -4,-246 601,-246 601,5 -4,5"/>
<!-- _diagram_info -->
<g id="node1" class="node"><title>_diagram_info</title>
<text text-anchor="start" x="8" y="-225.8" font-family="Times Roman,serif" font-size="13.00">Models diagram</text>
<text text-anchor="start" x="8" y="-208.8" font-family="Times Roman,serif" font-size="13.00">Date: Jan 16 2017 &#45; 19:54</text>
<text text-anchor="start" x="8" y="-191.8" font-family="Times Roman,serif" font-size="13.00">Migration version: 20170116225124</text>
<text text-anchor="start" x="8" y="-174.8" font-family="Times Roman,serif" font-size="13.00">Generated by RailRoady 1.5.2</text>
<text text-anchor="start" x="8" y="-157.8" font-family="Times Roman,serif" font-size="13.00">http://railroady.prestonlee.com</text>
</g>
<!-- Company -->
<g id="node2" class="node"><title>Company</title>
<ellipse fill="none" stroke="black" cx="325" cy="-195" rx="56.7776" ry="18.3848"/>
<text text-anchor="middle" x="325" y="-191.4" font-family="Times Roman,serif" font-size="14.00">Company</text>
</g>
<!-- User -->
<g id="node4" class="node"><title>User</title>
<ellipse fill="none" stroke="black" cx="294" cy="-93" rx="33.9411" ry="18.3848"/>
<text text-anchor="middle" x="294" y="-89.4" font-family="Times Roman,serif" font-size="14.00">User</text>
</g>
<!-- Company&#45;&gt;User -->
<g id="edge2" class="edge"><title>Company&#45;&gt;User</title>
<path fill="none" stroke="#47a58c" d="M316.946,-168.499C312.535,-153.986 307.069,-136 302.578,-121.224"/>
<ellipse fill="none" stroke="#47a58c" cx="318.151" cy="-172.464" rx="4.00001" ry="4.00001"/>
<polygon fill="#47a58c" stroke="#47a58c" points="302.558,-121.158 303.955,-110.281 301.104,-116.374 299.65,-111.59 299.65,-111.59 299.65,-111.59 301.104,-116.374 295.344,-112.898 302.558,-121.158 302.558,-121.158"/>
</g>
<!-- Claim -->
<g id="node5" class="node"><title>Claim</title>
<ellipse fill="none" stroke="black" cx="325" cy="-19" rx="38.8909" ry="18.3848"/>
<text text-anchor="middle" x="325" y="-15.4" font-family="Times Roman,serif" font-size="14.00">Claim</text>
</g>
<!-- Company&#45;&gt;Claim -->
<g id="edge4" class="edge"><title>Company&#45;&gt;Claim</title>
<path fill="none" stroke="#fe926e" d="M331.152,-166.479C335.647,-141.95 340.41,-105.629 337,-74 336.054,-65.2267 334.283,-55.8004 332.386,-47.273"/>
<polygon fill="#fe926e" stroke="#fe926e" points="331.104,-166.723 324.783,-175.684 330.153,-171.632 329.201,-176.54 329.201,-176.54 329.201,-176.54 330.153,-171.632 333.619,-177.397 331.104,-166.723 331.104,-166.723"/>
<polygon fill="#fe926e" stroke="#fe926e" points="332.358,-47.1534 334.436,-36.3863 331.207,-42.2876 330.057,-37.4217 330.057,-37.4217 330.057,-37.4217 331.207,-42.2876 325.677,-38.4571 332.358,-47.1534 332.358,-47.1534"/>
</g>
<!-- ApplicationRecord -->
<g id="node3" class="node"><title>ApplicationRecord</title>
<ellipse fill="none" stroke="black" cx="498" cy="-195" rx="97.7889" ry="18.3848"/>
<text text-anchor="middle" x="498" y="-191.4" font-family="Times Roman,serif" font-size="14.00">ApplicationRecord</text>
</g>
<!-- User&#45;&gt;Claim -->
<g id="edge6" class="edge"><title>User&#45;&gt;Claim</title>
<path fill="none" stroke="#ecc7ed" d="M304.835,-67.1355C307.601,-60.5337 310.585,-53.4104 313.388,-46.7198"/>
<ellipse fill="none" stroke="#ecc7ed" cx="303.208" cy="-71.0185" rx="4.00002" ry="4.00002"/>
<polygon fill="#ecc7ed" stroke="#ecc7ed" points="313.454,-46.5616 321.468,-39.0769 315.386,-41.9499 317.318,-37.3382 317.318,-37.3382 317.318,-37.3382 315.386,-41.9499 313.167,-35.5994 313.454,-46.5616 313.454,-46.5616"/>
</g>
</g>
</svg>
